<svg xmlns="http://www.w3.org/2000/svg" viewBox="0 0 213.26 100" width="213.26px" height="100px">
  <defs>
    <style>
      .cls-1 {
        fill: #fff;
      }
    </style>
  </defs>
  <g id="Group_32516" data-name="Group 32516" transform="translate(-325 -6120)">
    <g id="Group_28662" data-name="Group 28662" transform="translate(325 6196.323)">
      <path id="Path_18519" data-name="Path 18519" class="cls-1" d="M11.31,110.554v1.709H0V94.2H2.116v16.354H11.31Z" transform="translate(0 -93.956)"/>
      <path id="Path_18520" data-name="Path 18520" class="cls-1" d="M18,94.2H30.2v1.709H20.116v6.428h9.927v1.709H20.116v6.591H30.2v1.709H18Z" transform="translate(-3.354 -93.956)"/>
      <path id="Path_18521" data-name="Path 18521" class="cls-1" d="M49.1,94.2l9.438,18.144H56.265l-3.092-6.184H42.27l-3.011,6.184H36.9L46.582,94.2Zm-5.94,10.171H52.2l-4.475-8.462Z" transform="translate(-6.876 -93.956)"/>
      <path id="Path_18522" data-name="Path 18522" class="cls-1" d="M68.1,94.2h5.451a19.312,19.312,0,0,1,4.638.488,6.966,6.966,0,0,1,2.929,1.3,5.211,5.211,0,0,1,1.546,1.79,4.468,4.468,0,0,1,.57,1.953v.57a5.373,5.373,0,0,1-.732,2.36,4.483,4.483,0,0,1-1.383,1.627,5.75,5.75,0,0,1-2.034.9,13.476,13.476,0,0,1-2.685.325l6.347,6.916h-2.6l-7.567-8.3a27.643,27.643,0,0,0,3.906-.163,11.751,11.751,0,0,0,2.522-.57,2.992,2.992,0,0,0,1.465-1.139,4.256,4.256,0,0,0,.651-1.871v-.57a2.773,2.773,0,0,0-.57-1.79,3.73,3.73,0,0,0-1.627-1.22,10.648,10.648,0,0,0-2.278-.732,13.467,13.467,0,0,0-2.6-.244l-3.824-.081v16.6H68.1V94.2Z" transform="translate(-12.69 -93.956)"/>
      <path id="Path_18523" data-name="Path 18523" class="cls-1" d="M91.7,112.344V94.2h2.766l12.774,15.053V94.2h2.115v18.144H107L93.978,96.478v15.866Z" transform="translate(-17.088 -93.956)"/>
      <path id="Path_18524" data-name="Path 18524" class="cls-1" d="M120.6,94.2h12.286v1.709H122.715v6.428h9.927v1.709h-9.927v6.591h10.171v1.709H120.6Z" transform="translate(-22.473 -93.956)"/>
      <path id="Path_18525" data-name="Path 18525" class="cls-1" d="M151.8,94.2l9.438,18.144h-2.278l-3.092-6.184h-10.9l-3.011,6.184H139.6L149.283,94.2Zm-5.94,10.171H154.9l-4.475-8.462Z" transform="translate(-26.014 -93.956)"/>
      <path id="Path_18526" data-name="Path 18526" class="cls-1" d="M172.048,108.708a2.473,2.473,0,0,0,.976,1.058,8.892,8.892,0,0,0,1.22.651,3.8,3.8,0,0,0,1.383.244h.244a5.246,5.246,0,0,0,1.627-.244,6.16,6.16,0,0,0,1.465-.732,3.474,3.474,0,0,0,1.058-1.139,2.459,2.459,0,0,0,.407-1.3V107a.615.615,0,0,0-.081-.325c0-.081-.081-.163-.081-.325,0-.081-.081-.244-.081-.325a.08.08,0,0,0-.081-.081v-.081a1227.29,1227.29,0,0,0-.163-.163l-.081-.081v-.081l-.081-.081-.081-.081a3.758,3.758,0,0,0-.57-.57,2.545,2.545,0,0,0-.814-.407c-.325-.081-.651-.244-.976-.325s-.732-.244-1.058-.325c-.081,0-.081,0-.163-.081-.081,0-.081,0-.163-.081h-.163c-.081,0-.081,0-.163-.081-.081,0-.163-.081-.325-.081-.081,0-.244-.081-.325-.081a11.61,11.61,0,0,1-1.79-.651,17.216,17.216,0,0,1-1.709-.9,2.728,2.728,0,0,1-1.22-1.465,6.331,6.331,0,0,1-.407-2.278,3.28,3.28,0,0,1,.488-1.79,3.842,3.842,0,0,1,1.465-1.3,6.277,6.277,0,0,1,2.034-.814,10.1,10.1,0,0,1,2.2-.244,7.12,7.12,0,0,1,1.953.244,5.873,5.873,0,0,1,1.627.732,5.683,5.683,0,0,1,1.3,1.058,10.938,10.938,0,0,1,.9,1.139c.081.163.081.244.163.407a30408.352,30408.352,0,0,0,.163.651v.488h-2.116a6.3,6.3,0,0,0-.57-1.3,5.108,5.108,0,0,0-.9-.976,7.425,7.425,0,0,0-1.058-.651,4.664,4.664,0,0,0-1.139-.325h-.651a6.323,6.323,0,0,0-1.3.163,8.21,8.21,0,0,0-1.22.57,2.9,2.9,0,0,0-.9.814,2.649,2.649,0,0,0-.325,1.139h0v.163h0v.081a2.909,2.909,0,0,0,.325,1.546,2.473,2.473,0,0,0,1.058.976,8.675,8.675,0,0,0,1.546.57l1.709.488a13719.974,13719.974,0,0,0,.732.244.3.3,0,0,1,.244.081l1.709.488a8.817,8.817,0,0,1,1.546.651,3.265,3.265,0,0,1,1.3,1.058,7.593,7.593,0,0,1,.814,1.627v.57h0v1.465c0,.081,0,.081-.081.163v.163c0,.081,0,.081-.081.163a7.084,7.084,0,0,1-.814,1.546,6,6,0,0,1-1.465,1.383,5.892,5.892,0,0,1-1.871.976,10.182,10.182,0,0,1-2.36.407,8.584,8.584,0,0,1-2.522-.325,6.874,6.874,0,0,1-2.2-1.058,5.722,5.722,0,0,1-1.627-1.79,5.373,5.373,0,0,1-.732-2.278l2.36-.081A3.548,3.548,0,0,0,172.048,108.708Z" transform="translate(-31.53 -93.9)"/>
      <path id="Path_18527" data-name="Path 18527" class="cls-1" d="M195.367,105.917,187.8,94.2h2.36l6.346,10.008L203.1,94.2h2.116L197.4,105.917v6.347h-2.116v-6.347Z" transform="translate(-34.996 -93.956)"/>
    </g>
    <path id="Path_18528" data-name="Path 18528" class="cls-1" d="M106.458,44.688V20.766h0c-1.79-.9-3.661-1.79-5.614-2.766a10.387,10.387,0,0,0-.163,1.383C100.6,23.7,100.6,28.089,100.6,32.4c0,4.882.163,9.764,0,14.564a7.3,7.3,0,0,0,.244,1.546l.244.244c1.953-1.139,3.661-2.766,5.533-4.068Z" transform="translate(306.254 6116.566)"/>
    <path id="Path_18529" data-name="Path 18529" class="cls-1" d="M139.893,53.4c-2.848,1.953-5.777,3.824-8.381,5.94a16.786,16.786,0,0,0-5.533,8.706c-.163.732-.488,1.546-.732,2.278-.57-1.709-1.058-3.5-1.79-5.126-1.79-3.824-4.8-6.509-8.218-8.787-2.441-1.627-4.882-3.173-7.4-4.719-.407-.244-.814-.57-1.3-.9-1.871,1.3-3.58,2.929-5.533,4.068a5.2,5.2,0,0,0,1.546,1.383c.163.081.244.163.407.244,4.882,2.685,9.682,5.451,14.4,8.381a18.245,18.245,0,0,1,6.591,6.347c.407.651.732,1.3,1.22,2.2.488-.9.814-1.627,1.22-2.278a18.472,18.472,0,0,1,6.509-6.265c4.963-3.011,10.008-5.858,15.053-8.706a3.045,3.045,0,0,0,1.465-1.383c-1.79-1.465-3.987-2.36-5.777-3.824C142.5,51.776,141.195,52.59,139.893,53.4Z" transform="translate(306.179 6110.454)"/>
    <path id="Path_18530" data-name="Path 18530" class="cls-1" d="M145.065,19.206V10.5a14.832,14.832,0,0,0-1.465.488c-3.5,1.709-7.079,3.5-10.577,5.207-2.6,1.3-4.882,3.092-5.858,6.021a11.85,11.85,0,0,1-.732,1.3l-.325-.651a10.445,10.445,0,0,0-5.207-6.1c-3.743-1.871-7.567-3.824-11.31-5.614a6.529,6.529,0,0,0-1.465-.325,17.754,17.754,0,0,0-.081,1.953c-.081,2.2-.163,4.312-.244,6.509h0c4.394,2.2,8.869,4.394,13.181,6.672a8.516,8.516,0,0,1,4.638,7.079c.407,5.045.488,10.008.732,15.053.081,1.22,0,2.522.163,3.743.081-1.871.163-3.743.244-5.7.163-4.231.244-8.462.57-12.612a9.554,9.554,0,0,1,5.37-7.892c3.5-1.871,7-3.58,10.5-5.37.57-.244,1.058-.488,2.034-.9h0c0-.081.081-.163.081-.244C145.228,19.287,145.147,19.287,145.065,19.206Z" transform="translate(304.912 6117.964)"/>
    <path id="Path_18531" data-name="Path 18531" class="cls-1" d="M159.865,23.6c0-1.465-.081-3.011-.163-4.475a5.5,5.5,0,0,0-.325-1.22c-1.871.976-3.661,1.953-5.37,2.848-.081,0-.163-.081-.244-.081,0,.081-.081.163-.081.244.163,8.055.081,15.866,0,23.921l-.081.081c1.79,1.546,3.987,2.36,5.777,3.824a3.774,3.774,0,0,0,.325-1.709C159.7,39.136,159.784,31.407,159.865,23.6Z" transform="translate(296.377 6116.585)"/>
    <path id="Path_18532" data-name="Path 18532" class="cls-1" d="M107.8,21.4Z" transform="translate(304.912 6115.933)"/>
    <path id="Path_18533" data-name="Path 18533" class="cls-1" d="M95.963,49.22c.081-7.567,0-15.134,0-22.7,0-.57-.081-1.22-.081-1.79C94.255,23.753,92.709,22.858,91,21.8V55.16a45.8,45.8,0,0,1,5.451-4.15A2.592,2.592,0,0,1,95.963,49.22Z" transform="translate(308.043 6115.858)"/>
    <path id="Path_18534" data-name="Path 18534" class="cls-1" d="M169.27,55.423V21.9c-1.3.732-2.278,1.465-3.336,1.953a2.679,2.679,0,0,0-1.627,2.766c.081,7.648,0,15.215,0,22.864,0,.57-.081,1.139-.081,1.546a1.123,1.123,0,0,0-.325.244c1.79,1.383,3.5,2.848,5.207,4.231C169.189,55.5,169.189,55.423,169.27,55.423Z" transform="translate(294.458 6115.839)"/>
    <path id="Path_18535" data-name="Path 18535" class="cls-1" d="M150.3,57.925c-.081.081-.163.081-.244.163-6.184,3.58-12.449,7.079-18.633,10.74A17.048,17.048,0,0,0,124.5,75.5c-.407.814-.732,1.709-1.22,2.848a11.285,11.285,0,0,0-4.068-6.672,75.521,75.521,0,0,0-7.892-5.451c-4.556-2.685-9.194-5.207-13.913-7.73a2.938,2.938,0,0,1-1.058-.9A53.491,53.491,0,0,0,90.9,61.75v.244a4.613,4.613,0,0,0,1.058.651c4.231,2.36,8.462,4.8,12.693,7.16,5.777,3.255,11.635,6.509,17.412,9.845a2.245,2.245,0,0,0,2.36.081c3.011-1.709,6.1-3.336,9.113-5.045L153.8,63.214c.57-.325,1.139-.732,1.546-.976C153.714,60.773,152.087,59.309,150.3,57.925Z" transform="translate(308.061 6109.187)"/>
    <path id="Path_18536" data-name="Path 18536" class="cls-1" d="M136.127,6.365a6.1,6.1,0,0,1-6.184,6.265c-3.417,0-6.591-3.092-6.346-6.347.244-3.743,3.011-6.265,6.265-6.184A5.894,5.894,0,0,1,136.127,6.365Z" transform="translate(301.971 6119.902)"/>
    <rect id="Rectangle_13701" data-name="Rectangle 13701" class="cls-1" width="1.058" height="31" transform="translate(499.773 6189)"/>
    <g id="Group_28665" data-name="Group 28665" transform="translate(505.387 6195.102)">
      <path id="Path_18537" data-name="Path 18537" class="cls-1" d="M221.7,110.544V109.08l2.278-1.871c5.614-4.312,8.055-6.672,8.137-9.357,0-1.79-1.058-3.5-4.312-3.5a8.041,8.041,0,0,0-4.638,1.546l-.976-1.709a10.913,10.913,0,0,1,6.184-1.79c4.719,0,6.672,2.6,6.672,5.207,0,3.336-2.929,5.94-7.486,9.6l-1.709,1.3v.081h9.845v2.034H221.7Z" transform="translate(-221.7 -92.4)"/>
      <path id="Path_18538" data-name="Path 18538" class="cls-1" d="M252.571,110.6v-4.882H242.4v-1.627L252.164,92.7h3.173v11.147h3.092v1.871h-3.092V110.6Zm0-6.753v-5.94c0-.9,0-1.871.081-2.766h-.081c-.651,1.058-1.22,1.79-1.79,2.6l-5.37,6.1v.081h7.16Z" transform="translate(-225.557 -92.456)"/>
    </g>
  </g>
</svg>
