<svg id="Layer_1" data-name="Layer 1" xmlns="http://www.w3.org/2000/svg" viewBox="0 0 565.27 275.78"><defs><style>.cls-1{fill:#262262;}</style></defs><path class="cls-1" d="M502.84,602.72v-10.4h44.62a9,9,0,0,0,6.43-2.13,7.41,7.41,0,0,0,2.25-5.65,7.18,7.18,0,0,0-2.25-5.77,9.62,9.62,0,0,0-6.43-1.92H520.11a21.62,21.62,0,0,1-7.57-1.27,16.36,16.36,0,0,1-5.73-3.52,15.55,15.55,0,0,1-3.61-5.37,17.92,17.92,0,0,1-1.26-6.79,18.39,18.39,0,0,1,1.18-6.68,14.41,14.41,0,0,1,3.52-5.28,16.77,16.77,0,0,1,5.78-3.48,22.73,22.73,0,0,1,7.86-1.27H563v10.4H520.28a7.59,7.59,0,0,0-5.57,1.93,7.16,7.16,0,0,0-2,5.36,6.93,6.93,0,0,0,2,5.32,7.61,7.61,0,0,0,5.44,1.89h27.27q9.09,0,13.8,4.25T566,585.28a20.57,20.57,0,0,1-1.15,7,15,15,0,0,1-3.44,5.53,15.74,15.74,0,0,1-5.77,3.64,23.18,23.18,0,0,1-8.15,1.31Z" transform="translate(-437.36 -382.11)"/><path class="cls-1" d="M570.88,543.19h12.69l27,45.86,26.94-45.86h12l-34.3,57a7.84,7.84,0,0,1-2.13,2.46,4.74,4.74,0,0,1-2.87.9,4.87,4.87,0,0,1-2.95-.9,7.84,7.84,0,0,1-2.13-2.46Z" transform="translate(-437.36 -382.11)"/><path class="cls-1" d="M656.45,602.72V543.19h10.39v59.53Z" transform="translate(-437.36 -382.11)"/><path d="M673.72,543.19h12.69l27,45.86,26.94-45.86h12l-34.31,57a7.84,7.84,0,0,1-2.13,2.46,4.74,4.74,0,0,1-2.87.9,4.82,4.82,0,0,1-2.94-.9,7.84,7.84,0,0,1-2.13-2.46Z" transform="translate(-437.36 -382.11)"/><path d="M759.29,602.72V543.19h10.39v59.53Z" transform="translate(-437.36 -382.11)"/><path d="M780.58,602.72V543.19h34.47a31,31,0,0,1,11.62,2.13,27,27,0,0,1,9.18,6,27.43,27.43,0,0,1,6,9.21A31.22,31.22,0,0,1,844,572.34a32.77,32.77,0,0,1-2.17,12,29.15,29.15,0,0,1-6,9.62,28.16,28.16,0,0,1-9.18,6.39,28.68,28.68,0,0,1-11.62,2.33Zm34.47-10.4a18.49,18.49,0,0,0,7.41-1.47,17.95,17.95,0,0,0,9.78-10.24,21.33,21.33,0,0,0,1.39-7.78,21,21,0,0,0-1.39-7.73,17.72,17.72,0,0,0-3.89-6.1,17.92,17.92,0,0,0-5.89-4,19,19,0,0,0-7.41-1.43H790.89v38.73Z" transform="translate(-437.36 -382.11)"/><path d="M879.73,602.72a28.21,28.21,0,0,1-11.5-2.33,28.37,28.37,0,0,1-15.23-16,32.77,32.77,0,0,1-2.17-12,31.73,31.73,0,0,1,2.17-12,26.21,26.21,0,0,1,6.06-9.21,27.23,27.23,0,0,1,9.17-5.9,31,31,0,0,1,11.5-2.09h14.5a31.8,31.8,0,0,1,11.83,2.13,26.4,26.4,0,0,1,15.19,15.19,31.8,31.8,0,0,1,2.13,11.83,33,33,0,0,1-2.17,12,28.37,28.37,0,0,1-27,18.34Zm14.5-10.4a18.94,18.94,0,0,0,7.53-1.47,17.83,17.83,0,0,0,9.83-10.24,21.54,21.54,0,0,0,1.39-7.78,21.2,21.2,0,0,0-1.39-7.73A17.55,17.55,0,0,0,901.76,555a19.46,19.46,0,0,0-7.53-1.43h-14.5a19,19,0,0,0-7.41,1.43,17.55,17.55,0,0,0-5.85,4,18.25,18.25,0,0,0-3.85,6,21,21,0,0,0-1.39,7.78,21.33,21.33,0,0,0,1.39,7.78,18.54,18.54,0,0,0,3.85,6.18,17.91,17.91,0,0,0,5.85,4.06,18.49,18.49,0,0,0,7.41,1.47Z" transform="translate(-437.36 -382.11)"/><path d="M959,602.72a28.21,28.21,0,0,1-11.5-2.33,28.37,28.37,0,0,1-15.23-16,32.77,32.77,0,0,1-2.17-12,31.73,31.73,0,0,1,2.17-12,26.35,26.35,0,0,1,6.06-9.21,27.23,27.23,0,0,1,9.17-5.9,31,31,0,0,1,11.5-2.09h14.5a31.8,31.8,0,0,1,11.83,2.13,26.4,26.4,0,0,1,15.19,15.19,31.8,31.8,0,0,1,2.13,11.83,33,33,0,0,1-2.17,12,28.37,28.37,0,0,1-27,18.34Zm14.5-10.4a18.94,18.94,0,0,0,7.53-1.47,17.83,17.83,0,0,0,9.83-10.24,21.54,21.54,0,0,0,1.39-7.78,21.2,21.2,0,0,0-1.39-7.73A17.55,17.55,0,0,0,981,555a19.46,19.46,0,0,0-7.53-1.43H959a19,19,0,0,0-7.41,1.43,17.55,17.55,0,0,0-5.85,4,18.25,18.25,0,0,0-3.85,6,21,21,0,0,0-1.39,7.78,21.33,21.33,0,0,0,1.39,7.78,18.54,18.54,0,0,0,3.85,6.18,17.91,17.91,0,0,0,5.85,4.06,18.49,18.49,0,0,0,7.41,1.47Z" transform="translate(-437.36 -382.11)"/><path class="cls-1" d="M710.2,656.76H529.34a99.92,99.92,0,0,1-51.4-13.84c-19.5-11.68-39.35-32.85-40.53-70.83-.86-27.57,10.78-54.33,32.74-71,11.42-8.68,26.72-15.68,46.88-17.12,0,0,19.13-63.56,93.19-59.24v21s-61.1-7.41-77.15,57.4c0,0-54.93,0-70.59,45.41a65.8,65.8,0,0,0,6.44,55.59c9.5,15.56,26.94,32.06,58,31.07H710.2Z" transform="translate(-437.36 -382.11)"/><path class="cls-1" d="M669.46,418.53s44.44-36.21,88.87,6c0,0,19.14,14.4,21.6,52.05,0,0,84.56-30.86,99.37,55.54h21.6s-4.94-95-105.54-80.23c0,0-4.32-44.43-51.84-62.95,0,0-38.26-18.51-74.06,5.56Z" transform="translate(-437.36 -382.11)"/><polygon points="254.68 76.74 293.88 99.37 254.68 122 254.68 76.74"/><polygon points="224.28 57.2 243.88 68.52 224.28 79.83 224.28 57.2"/><polygon points="189.3 48.15 208.9 59.47 189.3 70.78 189.3 48.15"/><polygon points="202.58 9.68 222.18 21 202.58 32.31 202.58 9.68"/><polygon points="207.49 107.81 227.09 119.12 207.49 130.44 207.49 107.81"/><polygon points="289.07 253.15 308.67 264.46 289.07 275.78 289.07 253.15"/><polygon points="319.5 253.15 339.1 264.46 319.5 275.78 319.5 253.15"/><polygon points="349.94 253.15 369.54 264.46 349.94 275.78 349.94 253.15"/><polygon points="169.7 81.27 189.3 92.58 169.7 103.9 169.7 81.27"/></svg>