<svg id="Layer_1" data-name="Layer 1" xmlns="http://www.w3.org/2000/svg" viewBox="0 0 400.53 195.4"><defs><style>.cls-1{fill:#e6e7e8;}.cls-2{fill:#a7a9ac;}</style></defs><path class="cls-1" d="M566.21,578.75v-7.37h31.62a6.34,6.34,0,0,0,4.55-1.51,5.22,5.22,0,0,0,1.6-4,5.06,5.06,0,0,0-1.6-4.09,6.79,6.79,0,0,0-4.55-1.36H578.45a15.18,15.18,0,0,1-5.36-.9A11.6,11.6,0,0,1,569,557a11,11,0,0,1-2.55-3.8,12.56,12.56,0,0,1-.9-4.81,13,13,0,0,1,.84-4.73,10.09,10.09,0,0,1,2.5-3.74,11.65,11.65,0,0,1,4.09-2.47,16,16,0,0,1,5.57-.9h30.28v7.37H578.57a5.46,5.46,0,0,0-4,1.36,5.12,5.12,0,0,0-1.39,3.81,4.92,4.92,0,0,0,1.42,3.77,5.42,5.42,0,0,0,3.86,1.33h19.32q6.43,0,9.78,3t3.33,9.16a14.59,14.59,0,0,1-.81,4.94,10.56,10.56,0,0,1-2.44,3.91,11.1,11.1,0,0,1-4.09,2.58,16.31,16.31,0,0,1-5.77.93Z" transform="translate(-519.81 -422.44)"/><path class="cls-1" d="M614.42,536.57h9l19.15,32.49,19.09-32.49h8.47L645.81,577a5.53,5.53,0,0,1-1.51,1.74,3.32,3.32,0,0,1-2,.64,3.41,3.41,0,0,1-2.09-.64,5.53,5.53,0,0,1-1.51-1.74Z" transform="translate(-519.81 -422.44)"/><path class="cls-1" d="M675.05,578.75V536.57h7.37v42.18Z" transform="translate(-519.81 -422.44)"/><path class="cls-2" d="M687.29,536.57h9l19.15,32.49,19.08-32.49H743L718.68,577a5.53,5.53,0,0,1-1.51,1.74,3.32,3.32,0,0,1-2,.64,3.41,3.41,0,0,1-2.09-.64,5.4,5.4,0,0,1-1.51-1.74Z" transform="translate(-519.81 -422.44)"/><path class="cls-2" d="M747.92,578.75V536.57h7.36v42.18Z" transform="translate(-519.81 -422.44)"/><path class="cls-2" d="M763,578.75V536.57h24.43a22.07,22.07,0,0,1,8.23,1.51,19.12,19.12,0,0,1,6.5,4.24,19.48,19.48,0,0,1,4.27,6.52,22.29,22.29,0,0,1,1.53,8.39,23.41,23.41,0,0,1-1.53,8.53,20.67,20.67,0,0,1-4.27,6.81,19.7,19.7,0,0,1-6.5,4.53,20.3,20.3,0,0,1-8.23,1.65Zm24.43-7.37a12.88,12.88,0,0,0,9.42-3.91,13,13,0,0,0,2.76-4.38,15.12,15.12,0,0,0,1-5.52,14.91,14.91,0,0,0-1-5.48,12.49,12.49,0,0,0-6.93-7.13,13.35,13.35,0,0,0-5.25-1H770.31v27.44Z" transform="translate(-519.81 -422.44)"/><path class="cls-2" d="M833.26,578.75a20,20,0,0,1-14.65-6.18,20.42,20.42,0,0,1-4.3-6.81,23.41,23.41,0,0,1-1.53-8.53,22.6,22.6,0,0,1,1.53-8.47,18.82,18.82,0,0,1,4.3-6.53,19.37,19.37,0,0,1,6.5-4.18,22.08,22.08,0,0,1,8.15-1.48h10.27a22.64,22.64,0,0,1,8.38,1.51,18.68,18.68,0,0,1,10.76,10.76,22.49,22.49,0,0,1,1.51,8.39,23.21,23.21,0,0,1-1.54,8.53,20,20,0,0,1-10.82,11.34,20.45,20.45,0,0,1-8.29,1.65Zm10.27-7.37a13.48,13.48,0,0,0,5.33-1,12.61,12.61,0,0,0,7-7.25,15.33,15.33,0,0,0,1-5.52,15.11,15.11,0,0,0-1-5.48,12.7,12.7,0,0,0-2.76-4.32,12.49,12.49,0,0,0-4.21-2.81,13.65,13.65,0,0,0-5.33-1H833.26a13.28,13.28,0,0,0-5.25,1,12.24,12.24,0,0,0-4.15,2.81,13,13,0,0,0-2.73,4.29,14.84,14.84,0,0,0-1,5.51,15.12,15.12,0,0,0,1,5.52,13.21,13.21,0,0,0,2.73,4.38,12.69,12.69,0,0,0,4.15,2.87,13.12,13.12,0,0,0,5.25,1Z" transform="translate(-519.81 -422.44)"/><path class="cls-2" d="M889.42,578.75a20,20,0,0,1-14.65-6.18,20.42,20.42,0,0,1-4.3-6.81,23.41,23.41,0,0,1-1.53-8.53,22.6,22.6,0,0,1,1.53-8.47,18.82,18.82,0,0,1,4.3-6.53,19.27,19.27,0,0,1,6.5-4.18,22.08,22.08,0,0,1,8.15-1.48h10.27a22.64,22.64,0,0,1,8.38,1.51,18.68,18.68,0,0,1,10.76,10.76,22.49,22.49,0,0,1,1.51,8.39,23.21,23.21,0,0,1-1.54,8.53A20,20,0,0,1,908,577.1a20.45,20.45,0,0,1-8.29,1.65Zm10.27-7.37a13.48,13.48,0,0,0,5.33-1,12.61,12.61,0,0,0,7-7.25,15.33,15.33,0,0,0,1-5.52,15.11,15.11,0,0,0-1-5.48,12.7,12.7,0,0,0-2.76-4.32A12.49,12.49,0,0,0,905,545a13.65,13.65,0,0,0-5.33-1H889.42a13.28,13.28,0,0,0-5.25,1,12.24,12.24,0,0,0-4.15,2.81,13,13,0,0,0-2.73,4.29,14.84,14.84,0,0,0-1,5.51,15.12,15.12,0,0,0,1,5.52,13.21,13.21,0,0,0,2.73,4.38,12.69,12.69,0,0,0,4.15,2.87,13.12,13.12,0,0,0,5.25,1Z" transform="translate(-519.81 -422.44)"/><path class="cls-1" d="M713.13,617H575.83s-67.78-7.87-54.22-80.9c0,0,11.8-38.48,54.66-41.54,0,0,13.55-45,66-42v14.87s-43.29-5.25-54.66,40.67c0,0-54.22,0-52.91,52.91,0,0,7.44,42,48.54,40.66H713.13Z" transform="translate(-519.81 -422.44)"/><path class="cls-1" d="M684.27,448.25s31.49-25.66,63,4.22c0,0,13.56,10.21,15.31,36.88,0,0,59.9-21.86,70.4,39.36h15.3s-3.49-67.34-74.77-56.85c0,0-3.06-31.48-36.73-44.6,0,0-27.11-13.12-52.48,3.93Z" transform="translate(-519.81 -422.44)"/><polygon class="cls-2" points="180.46 54.38 208.23 70.41 180.46 86.45 180.46 54.38"/><polygon class="cls-2" points="158.92 40.53 172.81 48.55 158.92 56.56 158.92 40.53"/><polygon class="cls-2" points="134.14 34.12 148.02 42.13 134.14 50.15 134.14 34.12"/><polygon class="cls-2" points="143.54 6.86 157.43 14.88 143.54 22.89 143.54 6.86"/><polygon class="cls-2" points="147.02 76.39 160.91 84.4 147.02 92.42 147.02 76.39"/><polygon class="cls-2" points="204.82 179.37 218.71 187.38 204.82 195.4 204.82 179.37"/><polygon class="cls-2" points="226.39 179.37 240.28 187.38 226.39 195.4 226.39 179.37"/><polygon class="cls-2" points="247.95 179.37 261.84 187.38 247.95 195.4 247.95 179.37"/><polygon class="cls-2" points="120.25 57.58 134.14 65.6 120.25 73.62 120.25 57.58"/></svg>